<?xml version="1.0" encoding="utf-8"?>
<!-- Generator: Adobe Illustrator 26.2.0, SVG Export Plug-In . SVG Version: 6.00 Build 0)  -->
<svg version="1.1" id="a" xmlns="http://www.w3.org/2000/svg" xmlns:xlink="http://www.w3.org/1999/xlink" x="0px" y="0px"
	 viewBox="0 0 1492.2 174.9" style="enable-background:new 0 0 1492.2 174.9;" xml:space="preserve">
<style type="text/css">
	.st0{fill:#FFFFFF;}
	.st1{fill:#E30613;}
	.st2{fill:none;stroke:#575856;stroke-miterlimit:10;}
	.st3{fill:#1A1617;}
</style>
<g>
	<g>
		<path class="st0" d="M1304.4,0.2h166.5c12.1,0,21.3,9.6,21.3,21.3v131.4c0,10.9-8.8,21.7-21.3,21.7h-167.3
			c-10.4,0-21.3-9.2-21.3-21.7v-131C1282.3,9.8,1290.2,0.2,1304.4,0.2L1304.4,0.2z"/>
		<path class="st1" d="M1470.5,164.7c6.6,0,11.9-5.4,11.9-11.9v-131c0-6.6-5.3-11.9-11.9-11.9h-166.1c-6.6,0-11.9,5.3-11.9,11.9v131
			c0,6.6,5.3,11.9,11.9,11.9L1470.5,164.7L1470.5,164.7z"/>
		<path class="st0" d="M1478.7,21.7c0-4.6-3.7-8.3-8.3-8.3h-166.1c-4.6,0-8.3,3.7-8.3,8.3v131c0,4.6,3.7,8.3,8.3,8.3h166.1
			c4.6,0,8.3-3.7,8.3-8.3L1478.7,21.7L1478.7,21.7z"/>
	</g>
	<path class="st1" d="M1430.6,53.6l32.4,0c4.6,0,6.1-3.8,6.1-6.7c0-0.8,0-15.2,0-17.1c0-2.9-1.5-6.7-6.1-6.7l-56.6,0
		c-7.5,0-11.9,5.6-11.9,11.7c0,3.1,0,49.3,0,52.5c0,7.7,6.7,13.6,15,14.4l22.7,1.1c5,0.2,6.7,2.9,6.7,6.3v5.4
		c-0.1,3.6-2.6,5.7-7.1,5.7h-37.6c-5.2,0-6.1-2.5-6.9-4.8l-4.6-12.3c-0.8-2.5-3.3-4.8-6.3-5c-4-0.6-5-1-5-2.9c0-2.5,1.2-2.7,4.6-3.1
		c5.8-0.6,10.4-5.2,10.4-11.5V34.9c0-6.1-4.4-11.7-11.9-11.7h-62.2c-4.6,0-6.7,2.3-6.7,6.7v114.7c0,4.6,3.8,6.1,6.7,6.1
		c0.8,0,15.2,0,17.1,0c2.9,0,6.7-1.5,6.7-6.1V54.3h14.2c4,0,6.5,2.1,6.5,5.8v13.1c0,3.6-1.7,6.9-5.6,6.9h-4.2
		c-4.8,0-6.9,1.9-6.9,6.1v16.1c0,4.2,2.7,6.1,6.5,6.1c6.3,0,7.1,2.1,8.1,5.8l7.5,30.7c1.2,5,4,5.9,8.3,5.9h86.4
		c7.5,0,11.9-5.6,11.9-11.7V86.7c0-6.9-5.6-13.8-12.9-14.2l-24-1.5c-5-0.2-7.7-2.3-7.7-5.4v-6.4
		C1424.4,56.3,1426.3,53.6,1430.6,53.6L1430.6,53.6z"/>
</g>
<line class="st2" x1="1244.6" y1="0" x2="1244.6" y2="174.9"/>
<g>
	<path class="st3" d="M47.4,155H0V19.6h44.8c24.5,0,44.5,4,59.8,25.3c8.8,12.3,12.4,27.1,12.4,42.1C117.1,131.4,91.7,155,47.4,155
		L47.4,155z M49.6,50h-15v74.6h14.8c23.6,0,33.1-15.2,33.1-37.1S72.6,50,49.6,50L49.6,50z"/>
	<path class="st3" d="M130.3,155V19.6h75.2V50h-42.1v21h40.8v30.4h-40.8v23.2h42.1V155L130.3,155L130.3,155z"/>
	<path class="st3" d="M264.4,157.6c-27.3,0-48.8-14.1-48.8-43v-4.4h34.4c0,8.8,4,18.5,14.1,18.5c7.1,0,13.2-5.7,13.2-13
		c0-8.8-7.3-11.7-14.5-14.8c-4-1.8-8-3.5-12.1-5.1c-17.6-7.3-33.1-17.6-33.1-38.8c0-25.2,24.3-39.9,47.4-39.9
		c13.2,0,28,4.9,36.6,15.4c7,8.6,8.6,16.1,9,26.7h-34.2c-1.1-7.5-3.7-13.2-12.4-13.2c-6,0-11.9,4.2-11.9,10.6c0,2,0.2,4,1.3,5.7
		c3.3,5.5,21,12.4,26.7,15c17.9,8.2,31.7,17.6,31.7,38.8C311.6,144.4,291.1,157.6,264.4,157.6L264.4,157.6z"/>
	<path class="st3" d="M320.7,155V19.6h34.6V155H320.7z"/>
	<path class="st3" d="M438.5,157.8c-39.9,0-71.9-30.9-71.9-71s32.8-69.7,72.5-69.7c29.3,0,59.5,19,67.7,47.9H468
		c-6.2-11.2-17-17.6-29.8-17.6c-22.1,0-37,17.9-37,39.3s14.1,40.6,37.1,40.6c14.8,0,28.2-6.8,32.4-21.8h-40.4V78h80.3
		c0.2,2.4,0.2,4.8,0.2,7.1C510.8,126.7,480.1,157.8,438.5,157.8L438.5,157.8z"/>
	<path class="st3" d="M607.4,155l-51.6-82.3l-0.4,0.2l0.9,82.1h-33.1V19.6h29.8l52.3,85.1l0.4-0.4l-1.5-84.7h33.1V155H607.4
		L607.4,155z"/>
	<path class="st1" d="M699.6,157.6c-27.3,0-48.8-14.1-48.8-43v-4.4h34.4c0,8.8,4,18.5,14.1,18.5c7.1,0,13.2-5.7,13.2-13
		c0-8.8-7.3-11.7-14.5-14.8c-4-1.8-8-3.5-12.1-5.1c-17.6-7.3-33.1-17.6-33.1-38.8c0-25.2,24.3-39.9,47.4-39.9
		c13.2,0,28,4.9,36.6,15.4c7,8.6,8.6,16.1,9,26.7h-34.2c-1.1-7.5-3.7-13.2-12.4-13.2c-6,0-11.9,4.2-11.9,10.6c0,2,0.2,4,1.3,5.7
		c3.3,5.5,21,12.4,26.7,15c17.9,8.2,31.7,17.6,31.7,38.8C746.8,144.4,726.3,157.6,699.6,157.6L699.6,157.6z"/>
	<path class="st1" d="M1167.1,155l-37-58.6h-0.4V155h-34.6V19.6h34.6v60.9h0.4l38.2-60.9h36.2l-44.8,67.5l47.8,67.9L1167.1,155
		L1167.1,155z"/>
	<polygon class="st1" points="870.9,87.6 904.6,129.6 907.5,19.6 895,19.6 856.9,114.1 896.6,134.2 	"/>
	<polygon class="st1" points="947.6,87.6 921.8,134.2 961.6,114.2 923.3,19.6 910.8,19.6 913.8,129.6 	"/>
	<polygon class="st1" points="980.4,161.2 980.6,161.4 964.3,120.9 926.4,144.4 	"/>
	<polygon class="st1" points="854.2,120.7 837.8,161.2 892,144.4 	"/>
	<path class="st1" d="M1050.5,108.9c21.4-3.5,33.7-21.8,33.7-42.6c0-14.1-5.5-28-16.7-36.9c-11.7-9.3-27.4-9.7-41.7-9.7H983v83.9
		l33.1-16.6V50h12.6c11.9,0,22.3,4.9,22.3,18.3s-9.7,19.4-22.7,19.4h-10.7L983,109.3V155h33.1v-43.7h0.4l31.3,43.7h39.5
		L1050.5,108.9L1050.5,108.9z"/>
	<path class="st1" d="M847.2,100.9c9.5-8.4,14.3-23.1,14.3-35.5c0-13.9-5.3-26.9-15.9-35.9c-11.2-9.3-27.8-9.9-41.7-9.9h-44.3V155
		h33.1v-42.4h15c10,0,18.9-0.6,27.1-4l-42.1-26.4V50h12.8c11.3,0,22.9,1.8,22.9,15.9s-10.2,16.3-21.6,16.3h-12l45.9,23.5
		c0.8-0.5,1.7-1.1,2.5-1.6C844.5,103.1,845.9,102,847.2,100.9L847.2,100.9z"/>
</g>
</svg>
