<?xml version="1.0" encoding="UTF-8" standalone="no"?>
<!-- Generator: Adobe Illustrator 26.3.1, SVG Export Plug-In . SVG Version: 6.00 Build 0)  -->

<svg
   version="1.1"
   id="Layer_1"
   x="0px"
   y="0px"
   viewBox="0 0 175.75 14.17"
   style="enable-background:new 0 0 175.75 14.17;"
   xml:space="preserve"
   sodipodi:docname="esdk.svg"
   inkscape:version="1.1.2 (b8e25be833, 2022-02-05)"
   xmlns:inkscape="http://www.inkscape.org/namespaces/inkscape"
   xmlns:sodipodi="http://sodipodi.sourceforge.net/DTD/sodipodi-0.dtd"
   xmlns="http://www.w3.org/2000/svg"
   xmlns:svg="http://www.w3.org/2000/svg"><defs
   id="defs101" /><sodipodi:namedview
   id="namedview99"
   pagecolor="#ffffff"
   bordercolor="#666666"
   borderopacity="1.0"
   inkscape:pageshadow="2"
   inkscape:pageopacity="0.0"
   inkscape:pagecheckerboard="0"
   showgrid="false"
   inkscape:zoom="6.2702703"
   inkscape:cx="87.795259"
   inkscape:cy="7.0172414"
   inkscape:window-width="1920"
   inkscape:window-height="1137"
   inkscape:window-x="1912"
   inkscape:window-y="-8"
   inkscape:window-maximized="1"
   inkscape:current-layer="Layer_1" />
<style
   type="text/css"
   id="style2">
	.st0{fill:#E30613;}
	.st1{fill:#0095C6;}
</style>

<g
   id="g965"
   transform="translate(10.844858)"><g
     id="g54"
     transform="translate(74.595132,0.04621349)">
	<g
   id="g14">
		<g
   id="g12">
			<path
   d="m 32.5,2.89 h 5.13 v 1.56 h -3.19 v 1.91 h 3.19 v 1.52 h -3.19 v 1.85 h 3.19 v 1.56 H 32.5 Z"
   id="path4" />
			<path
   d="m 38.09,8.54 h 1.94 c 0,0.91 0.52,1.45 1.37,1.45 0.72,0 1.13,-0.34 1.13,-0.92 0,-0.52 -0.26,-0.78 -1.02,-1.08 L 40,7.4 C 38.87,6.98 38.3,6.2 38.3,5.11 c 0,-1.48 1.16,-2.46 2.99,-2.46 1.85,0 3.07,1.04 3.07,2.66 h -1.94 c 0,-0.78 -0.41,-1.21 -1.16,-1.21 -0.64,0 -1.01,0.32 -1.01,0.83 0,0.47 0.32,0.76 1.15,1.09 l 1.39,0.55 c 1.16,0.46 1.69,1.24 1.69,2.36 0,1.57 -1.22,2.59 -3.08,2.59 -2.08,0 -3.31,-1.1 -3.31,-2.98 z"
   id="path6" />
			<path
   d="m 45.24,2.89 h 3.17 c 2.7,0 4.28,1.93 4.28,4.2 0,2.27 -1.57,4.2 -4.28,4.2 h -3.17 z m 2.99,6.76 c 1.66,0 2.46,-1.23 2.46,-2.57 0,-1.33 -0.8,-2.57 -2.46,-2.57 h -1.04 v 5.13 h 1.04 z"
   id="path8" />
			<path
   d="m 57.15,7.05 3.3,4.23 H 58.14 L 55.38,7.57 v 3.71 h -1.94 v -8.4 h 1.94 v 3.73 l 2.77,-3.73 h 2.3 z"
   id="path10" />
		</g>
	</g>
	<g
   id="g52">
		<g
   id="g32">
			<g
   id="g18">
				<path
   class="st1"
   d="M 62.52,9.39 C 62.39,9.39 62.25,9.34 62.16,9.23 61.97,9.03 61.98,8.71 62.18,8.52 62.33,8.38 62.8,7.88 62.81,7.09 62.82,6.22 62.25,5.68 62.13,5.58 61.92,5.4 61.9,5.08 62.08,4.87 c 0.18,-0.21 0.5,-0.23 0.71,-0.05 0.17,0.15 1.03,0.97 1.02,2.27 -0.01,1.18 -0.73,1.94 -0.95,2.15 -0.09,0.11 -0.22,0.15 -0.34,0.15 z"
   id="path16" />
			</g>
			<g
   id="g22">
				<path
   class="st1"
   d="m 63.89,10.61 c -0.13,0 -0.27,-0.05 -0.36,-0.16 -0.19,-0.2 -0.18,-0.52 0.02,-0.71 0.27,-0.25 1.14,-1.19 1.16,-2.62 0.01,-1.58 -1.03,-2.58 -1.24,-2.77 -0.21,-0.18 -0.23,-0.5 -0.04,-0.71 0.18,-0.21 0.5,-0.23 0.71,-0.04 0.38,0.33 1.6,1.57 1.58,3.53 -0.02,1.83 -1.13,3.02 -1.47,3.34 -0.12,0.1 -0.24,0.14 -0.36,0.14 z"
   id="path20" />
			</g>
			<g
   id="g26">
				<path
   class="st1"
   d="m 65.26,11.94 c -0.13,0 -0.27,-0.05 -0.36,-0.16 -0.19,-0.2 -0.18,-0.52 0.02,-0.71 0.4,-0.38 1.7,-1.76 1.72,-3.91 C 66.66,4.8 65.1,3.31 64.79,3.03 64.58,2.85 64.56,2.53 64.74,2.32 c 0.18,-0.21 0.5,-0.23 0.71,-0.05 0.52,0.46 2.22,2.17 2.19,4.89 -0.02,2.54 -1.57,4.18 -2.04,4.63 -0.09,0.1 -0.21,0.15 -0.34,0.15 z"
   id="path24" />
			</g>
			<g
   id="g30">
				<path
   class="st1"
   d="m 66.53,13.22 c -0.13,0 -0.27,-0.05 -0.36,-0.16 -0.19,-0.2 -0.18,-0.52 0.02,-0.71 0.53,-0.5 2.25,-2.33 2.27,-5.16 C 68.49,4.07 66.43,2.11 66.01,1.74 65.8,1.56 65.78,1.24 65.96,1.03 c 0.18,-0.21 0.5,-0.23 0.71,-0.05 0.47,0.41 2.82,2.66 2.79,6.21 -0.03,3.22 -1.99,5.31 -2.59,5.88 -0.09,0.11 -0.21,0.15 -0.34,0.15 z"
   id="path28" />
			</g>
		</g>
		<g
   id="g50">
			<g
   id="g36">
				<path
   class="st1"
   d="m 28.63,9.39 c -0.12,0 -0.25,-0.04 -0.34,-0.13 -0.22,-0.21 -0.94,-0.97 -0.95,-2.15 -0.01,-1.3 0.85,-2.12 1.02,-2.27 0.21,-0.18 0.52,-0.16 0.71,0.05 0.18,0.21 0.16,0.52 -0.05,0.71 -0.11,0.1 -0.69,0.64 -0.68,1.51 0.01,0.79 0.48,1.29 0.63,1.43 0.2,0.19 0.21,0.51 0.02,0.71 -0.09,0.09 -0.23,0.14 -0.36,0.14 z"
   id="path34" />
			</g>
			<g
   id="g40">
				<path
   class="st1"
   d="m 27.27,10.61 c -0.12,0 -0.25,-0.04 -0.34,-0.14 -0.34,-0.32 -1.45,-1.51 -1.47,-3.34 -0.02,-1.96 1.21,-3.2 1.58,-3.53 0.21,-0.18 0.52,-0.16 0.71,0.04 0.18,0.21 0.16,0.52 -0.04,0.71 -0.21,0.19 -1.26,1.19 -1.24,2.77 0.01,1.43 0.89,2.37 1.16,2.62 0.2,0.19 0.21,0.51 0.02,0.71 -0.12,0.11 -0.25,0.16 -0.38,0.16 z"
   id="path38" />
			</g>
			<g
   id="g44">
				<path
   class="st1"
   d="m 25.89,11.94 c -0.12,0 -0.25,-0.04 -0.34,-0.14 -0.47,-0.44 -2.01,-2.09 -2.04,-4.63 -0.02,-2.72 1.67,-4.43 2.19,-4.89 0.21,-0.18 0.52,-0.16 0.71,0.05 0.18,0.21 0.16,0.52 -0.05,0.71 -0.31,0.28 -1.88,1.77 -1.85,4.13 0.02,2.14 1.32,3.53 1.72,3.91 0.2,0.19 0.21,0.5 0.02,0.71 -0.1,0.1 -0.23,0.15 -0.36,0.15 z"
   id="path42" />
			</g>
			<g
   id="g48">
				<path
   class="st1"
   d="m 24.62,13.22 c -0.12,0 -0.25,-0.04 -0.34,-0.14 -0.6,-0.56 -2.56,-2.65 -2.59,-5.88 -0.04,-3.45 2.12,-5.62 2.78,-6.2 0.21,-0.18 0.52,-0.16 0.71,0.05 0.18,0.21 0.16,0.52 -0.05,0.71 -0.41,0.36 -2.48,2.33 -2.45,5.45 0.03,2.83 1.75,4.66 2.27,5.16 0.2,0.19 0.21,0.51 0.02,0.71 -0.09,0.09 -0.22,0.14 -0.35,0.14 z"
   id="path46" />
			</g>
		</g>
	</g>
</g><g
     id="g96"
     transform="translate(-74.595132,-0.04621349)">
	<g
   id="g94">
		<g
   id="g88">
			<g
   id="g72">
				<path
   d="M 87.39,10.96 H 84.6 V 2.99 h 2.64 c 1.44,0 2.62,0.24 3.53,1.49 0.52,0.72 0.73,1.6 0.73,2.48 0,2.61 -1.5,4 -4.11,4 z m 0.13,-6.18 h -0.88 v 4.4 h 0.87 c 1.39,0 1.95,-0.89 1.95,-2.19 0,-1.28 -0.58,-2.21 -1.94,-2.21 z"
   id="path56" />
				<path
   d="M 92.27,10.96 V 2.99 h 4.43 v 1.79 h -2.48 v 1.24 h 2.4 V 7.8 h -2.4 v 1.37 h 2.48 v 1.79 z"
   id="path58" />
				<path
   d="m 100.17,11.11 c -1.61,0 -2.88,-0.83 -2.88,-2.53 V 8.32 h 2.03 c 0,0.52 0.24,1.09 0.83,1.09 0.42,0 0.78,-0.33 0.78,-0.77 0,-0.52 -0.43,-0.69 -0.85,-0.87 -0.24,-0.11 -0.47,-0.2 -0.71,-0.3 -1.03,-0.43 -1.95,-1.03 -1.95,-2.29 0,-1.49 1.43,-2.35 2.79,-2.35 0.78,0 1.65,0.29 2.16,0.91 0.41,0.51 0.51,0.95 0.53,1.57 h -2.02 c -0.06,-0.44 -0.22,-0.78 -0.73,-0.78 -0.36,0 -0.7,0.25 -0.7,0.63 0,0.12 0.01,0.24 0.08,0.33 0.19,0.32 1.24,0.73 1.57,0.88 1.06,0.48 1.86,1.03 1.86,2.29 0,1.68 -1.21,2.45 -2.79,2.45 z"
   id="path60" />
				<path
   d="M 103.49,10.96 V 2.99 h 2.04 v 7.98 h -2.04 z"
   id="path62" />
				<path
   d="m 110.44,11.12 c -2.35,0 -4.24,-1.82 -4.24,-4.18 0,-2.39 1.93,-4.11 4.27,-4.11 1.72,0 3.5,1.12 3.99,2.82 h -2.29 c -0.37,-0.66 -1,-1.03 -1.76,-1.03 -1.3,0 -2.18,1.06 -2.18,2.32 0,1.3 0.83,2.39 2.19,2.39 0.87,0 1.66,-0.4 1.91,-1.28 h -2.38 V 6.42 h 4.73 c 0.01,0.14 0.01,0.28 0.01,0.42 0.01,2.45 -1.81,4.28 -4.25,4.28 z"
   id="path64" />
				<path
   d="m 120.39,10.96 -3.04,-4.85 -0.02,0.01 0.05,4.84 h -1.95 V 2.99 h 1.76 L 120.27,8 120.29,7.98 120.2,2.99 h 1.95 v 7.98 h -1.76 z"
   id="path66" />
				<path
   class="st0"
   d="m 125.82,11.11 c -1.61,0 -2.88,-0.83 -2.88,-2.53 V 8.32 h 2.03 c 0,0.52 0.24,1.09 0.83,1.09 0.42,0 0.78,-0.33 0.78,-0.77 0,-0.52 -0.43,-0.69 -0.85,-0.87 -0.24,-0.11 -0.47,-0.2 -0.71,-0.3 -1.03,-0.43 -1.95,-1.03 -1.95,-2.29 0,-1.49 1.43,-2.35 2.79,-2.35 0.78,0 1.65,0.29 2.16,0.91 0.41,0.51 0.51,0.95 0.53,1.57 h -2.02 c -0.07,-0.44 -0.22,-0.78 -0.73,-0.78 -0.36,0 -0.7,0.25 -0.7,0.63 0,0.12 0.01,0.24 0.08,0.33 0.19,0.32 1.24,0.73 1.57,0.88 1.06,0.48 1.87,1.03 1.87,2.29 -0.02,1.68 -1.23,2.45 -2.8,2.45 z"
   id="path68" />
				<path
   class="st0"
   d="m 153.37,10.96 -2.18,-3.45 h -0.02 v 3.45 h -2.04 V 2.99 h 2.04 v 3.59 h 0.02 l 2.25,-3.59 h 2.13 l -2.64,3.98 2.81,4 h -2.37 z"
   id="path70" />
			</g>
			<g
   id="g86">
				<polygon
   class="st0"
   points="135.91,6.99 137.9,9.46 138.07,2.99 137.34,2.99 135.09,8.55 137.43,9.74 "
   id="polygon74" />
				<polygon
   class="st0"
   points="140.44,6.99 138.91,9.74 141.26,8.56 139,2.99 138.27,2.99 138.44,9.46 "
   id="polygon76" />
				<polygon
   class="st0"
   points="141.42,8.95 139.18,10.34 142.37,11.33 142.38,11.34 "
   id="polygon78" />
				<polygon
   class="st0"
   points="134.93,8.94 133.96,11.33 137.16,10.34 "
   id="polygon80" />
				<g
   id="g84">
					<path
   class="st0"
   d="m 146.5,8.25 c 1.26,-0.2 1.98,-1.28 1.98,-2.51 0,-0.83 -0.32,-1.65 -0.98,-2.18 -0.69,-0.55 -1.62,-0.57 -2.46,-0.57 h -2.52 v 4.94 l 1.95,-0.98 V 4.78 h 0.74 c 0.7,0 1.32,0.29 1.32,1.08 0,0.82 -0.57,1.14 -1.34,1.14 h -0.63 l -2.05,1.27 v 2.7 h 1.95 V 8.39 h 0.02 l 1.84,2.58 h 2.33 z"
   id="path82" />
				</g>
			</g>
		</g>
		<g
   id="g92">
			<path
   class="st0"
   d="m 134.52,7.77 c 0.56,-0.5 0.84,-1.36 0.84,-2.09 0,-0.82 -0.31,-1.58 -0.94,-2.11 -0.66,-0.55 -1.64,-0.58 -2.46,-0.58 h -2.61 v 7.98 h 1.95 v -2.5 h 0.88 c 0.59,0 1.11,-0.04 1.6,-0.23 L 131.3,6.69 v -1.9 h 0.75 c 0.67,0 1.35,0.11 1.35,0.94 0,0.81 -0.6,0.96 -1.27,0.96 h -0.4 -0.08 -0.24 l 2.7,1.38 c 0.05,-0.03 0.1,-0.06 0.15,-0.1 0.1,-0.07 0.18,-0.13 0.26,-0.2 z"
   id="path90" />
		</g>
	</g>
</g></g>
</svg>
